<?xml version="1.0" encoding="UTF-8"?>
<svg version="1.1" xmlns="http://www.w3.org/2000/svg" width="420" height="420">
<path d="M0 0 C3.14012968 2.75833667 6.20321995 5.59190529 9.24609375 8.45703125 C11.18265778 10.24526272 13.10950844 11.93634356 15.14453125 13.6015625 C18.88922007 16.7468962 21.85729415 20.26998927 25 24 C25.74121094 24.84175781 26.48242188 25.68351562 27.24609375 26.55078125 C56.11908229 59.95105439 75.80178586 105.34152192 76.23828125 149.8359375 C76.24812042 150.6643364 76.25795959 151.49273529 76.26809692 152.34623718 C76.80205268 209.04115627 60.79747373 259.12002208 23 302 C22.27941406 302.84304688 21.55882812 303.68609375 20.81640625 304.5546875 C16.539091 309.50736832 12.00446386 313.7969324 7 318 C6.08863281 318.81082031 5.17726563 319.62164062 4.23828125 320.45703125 C-15.71949883 338.09481178 -39.75538683 351.56888402 -65 360 C-65.78987305 360.26506348 -66.57974609 360.53012695 -67.39355469 360.80322266 C-119.47839631 377.85982594 -177.35167305 372.72875267 -226.42919922 348.81640625 C-243.12144924 340.34705918 -257.99597618 329.34414634 -272 317 C-273.26457031 315.91912109 -273.26457031 315.91912109 -274.5546875 314.81640625 C-279.50736832 310.539091 -283.7969324 306.00446386 -288 301 C-288.81082031 300.08863281 -289.62164062 299.17726563 -290.45703125 298.23828125 C-298.23816396 289.42854286 -304.76083479 279.9491773 -311 270 C-311.61488281 269.02836914 -311.61488281 269.02836914 -312.2421875 268.03710938 C-323.58468103 249.86247628 -331.25397555 228.83519753 -336 208 C-336.20882813 207.08395996 -336.41765625 206.16791992 -336.6328125 205.22412109 C-348.19607243 151.47874761 -336.83092961 93.98293894 -307.27441406 47.91943359 C-300.76839877 38.12052704 -293.47251251 29.07003921 -285.375 20.55078125 C-282.98044837 18.04642124 -282.98044837 18.04642124 -280.91796875 15.375 C-279.1663693 13.20601331 -277.43544286 11.48109742 -275.3125 9.6875 C-273.19759054 7.88905509 -271.1021189 6.09589214 -269.078125 4.1953125 C-257.75180581 -6.38469884 -244.52195956 -14.78819554 -230.86279297 -22.01367188 C-229.12027972 -22.93631323 -227.38971368 -23.88141988 -225.66015625 -24.828125 C-209.18180597 -33.52775344 -191.20133737 -39.22132767 -173 -43 C-171.87779053 -43.24556641 -171.87779053 -43.24556641 -170.73291016 -43.49609375 C-112.20063848 -55.82135783 -45.53576996 -38.50943675 0 0 Z M-159.0625 -4.125 C-164.44976178 1.2775907 -169.32141131 6.96894533 -174 13 C-174.43747559 13.5451123 -174.87495117 14.09022461 -175.32568359 14.65185547 C-187.95678959 30.39134626 -200.16742768 48.89147824 -207 68 C-206.20152137 70.15371785 -206.20152137 70.15371785 -204.18774414 70.71435547 C-201.48257865 71.44940399 -198.77775397 72.17785517 -196.0625 72.875 C-194.5319397 73.26981567 -194.5319397 73.26981567 -192.97045898 73.67260742 C-185.22208056 75.5975135 -177.45032588 77.08751219 -169.5625 78.3125 C-168.54744385 78.47153809 -167.5323877 78.63057617 -166.48657227 78.79443359 C-157.94988439 80.03869709 -149.69035519 80.4568528 -141 81 C-141 48 -141 15 -141 -19 C-146.8516452 -19 -154.80953028 -8.32499437 -159.0625 -4.125 Z M-123 -19 C-123 14 -123 47 -123 81 C-103.44979794 79.64191846 -103.44979794 79.64191846 -84.3125 76.625 C-83.23943604 76.40803467 -82.16637207 76.19106934 -81.06079102 75.9675293 C-69.34137927 73.64628213 -69.34137927 73.64628213 -58 70 C-57.67 69.34 -57.34 68.68 -57 68 C-58.13911547 65.13225377 -59.34940085 62.3997661 -60.6875 59.625 C-61.09323242 58.7808252 -61.49896484 57.93665039 -61.91699219 57.06689453 C-69.89088437 40.81611426 -79.57049638 26.01399396 -91 12 C-91.7420166 11.08444336 -91.7420166 11.08444336 -92.49902344 10.15039062 C-98.31167404 3.02921414 -104.49348687 -3.69594029 -110.9375 -10.25 C-111.56446777 -10.89469238 -112.19143555 -11.53938477 -112.83740234 -12.20361328 C-113.73579834 -13.10055908 -113.73579834 -13.10055908 -114.65234375 -14.015625 C-115.17820068 -14.54446289 -115.70405762 -15.07330078 -116.24584961 -15.61816406 C-118.35948784 -17.41717743 -118.35948784 -17.41717743 -123 -19 Z M-88 -14 C-84.98894631 -9.81417916 -81.89555687 -5.83347305 -78.375 -2.0625 C-61.63641613 16.53237042 -48.85078339 40.14238986 -39 63 C-28.41710544 58.88778954 -18.30932167 54.31777094 -8.4375 48.6875 C-7.52782471 48.17219727 -6.61814941 47.65689453 -5.6809082 47.12597656 C-0.68601929 44.30502101 -0.68601929 44.30502101 3 40 C-21.78644904 14.50424081 -51.19918243 -5.15430724 -86 -14 C-86.66 -14 -87.32 -14 -88 -14 Z M-185.89697266 -11.65039062 C-187.49484619 -11.11188477 -187.49484619 -11.11188477 -189.125 -10.5625 C-190.21216309 -10.19705078 -191.29932617 -9.83160156 -192.41943359 -9.45507812 C-201.40251678 -6.35480434 -209.70520357 -2.60345398 -218 2 C-219.22109295 2.65543481 -220.44244692 3.31038356 -221.6640625 3.96484375 C-238.62226441 13.19810102 -253.6960019 26.06247818 -267 40 C-263.0843693 44.32254918 -258.98096187 47.03600151 -253.875 49.8125 C-253.1010791 50.23901855 -252.3271582 50.66553711 -251.52978516 51.10498047 C-242.96442131 55.72158969 -234.03492663 59.41407568 -225 63 C-224.54113403 62.00540771 -224.54113403 62.00540771 -224.07299805 60.99072266 C-211.31864335 33.4967888 -196.18765853 9.65431777 -176 -13 C-179.37150691 -14.68575345 -182.45118078 -12.76903098 -185.89697266 -11.65039062 Z M-280 57 C-301.95337091 80.65959145 -313 121.64229936 -313 153 C-290.56 153 -268.12 153 -245 153 C-244.01 143.76 -243.02 134.52 -242 125 C-241.1135859 119.78315755 -240.20960802 114.70775111 -239.0625 109.5625 C-238.70381836 107.84063477 -238.70381836 107.84063477 -238.33789062 106.08398438 C-236.84606706 99.12082899 -234.95319369 92.40583984 -232.66967773 85.65991211 C-231.72675827 82.92259665 -231.72675827 82.92259665 -233 80 C-234.70008694 78.91267094 -234.70008694 78.91267094 -236.83984375 78.08984375 C-237.64728027 77.7446167 -238.4547168 77.39938965 -239.28662109 77.04370117 C-240.16141113 76.67865479 -241.03620117 76.3136084 -241.9375 75.9375 C-249.11118892 72.83356223 -256.05678665 69.51277032 -262.875 65.6875 C-263.60452881 65.27943115 -264.33405762 64.8713623 -265.08569336 64.45092773 C-268.25833783 62.64913792 -271.33043128 60.79921304 -274.3203125 58.70703125 C-276.89216868 56.7313634 -276.89216868 56.7313634 -280 57 Z M6.3125 61 C-0.92644066 65.4665616 -8.3614921 69.31561587 -16.00830078 73.02832031 C-19.35186291 74.65952616 -22.67485627 76.33166199 -26 78 C-28 79 -30 80 -32 81 C-31.81824219 81.64759277 -31.63648438 82.29518555 -31.44921875 82.96240234 C-26.13768272 102.12819484 -22.25947896 121.31541362 -20.29370117 141.11181641 C-19.89042964 145.07748744 -19.44019362 149.03825742 -19 153 C3.44 153 25.88 153 49 153 C49 145.48934738 48.67163562 139.34760247 47.375 132.125 C47.19606201 131.1261377 47.01712402 130.12727539 46.83276367 129.09814453 C42.27282277 104.81564184 33.24482867 75.48930084 16 57 C11.98237981 57 9.59827663 58.91789869 6.3125 61 Z M-214 87 C-221.32072781 108.18338259 -226 130.54327136 -226 153 C-197.95 153 -169.9 153 -141 153 C-141 135.51 -141 118.02 -141 100 C-144.40038833 99.14990292 -147.38375436 98.71918024 -150.85546875 98.421875 C-172.33798219 96.4668981 -193.25579242 93.03774497 -214 87 Z M-51 87 C-53.07594468 87.22247945 -53.07594468 87.22247945 -55.41796875 87.9765625 C-56.78707397 88.36183105 -56.78707397 88.36183105 -58.18383789 88.75488281 C-59.17504639 89.04202148 -60.16625488 89.32916016 -61.1875 89.625 C-79.55783909 94.66428104 -97.90398465 97.42996111 -116.89135742 98.76635742 C-119.33997054 98.98992004 -119.33997054 98.98992004 -123 100 C-123 117.49 -123 134.98 -123 153 C-94.95 153 -66.9 153 -38 153 C-38.75501236 138.00180453 -38.75501236 138.00180453 -40.6875 123.25 C-40.85685059 122.25919434 -41.02620117 121.26838867 -41.20068359 120.24755859 C-43.46226696 102.4038834 -43.46226696 102.4038834 -51 87 Z M-313 171 C-313 178.51087373 -312.67126865 184.65222096 -311.375 191.875 C-311.19678711 192.87241211 -311.01857422 193.86982422 -310.83496094 194.89746094 C-306.14246705 219.93203495 -296.75668459 247.34613163 -280 267 C-277.09392617 266.38284127 -274.80630441 265.47406697 -272.234375 263.99609375 C-271.51693115 263.58891113 -270.7994873 263.18172852 -270.06030273 262.76220703 C-269.29790283 262.32505371 -268.53550293 261.88790039 -267.75 261.4375 C-256.44052338 255.05343321 -244.94358578 249.11867962 -233 244 C-233.74073261 237.60440624 -235.31048022 231.48769294 -236.875 225.25 C-241.28908657 207.17770086 -243.3015367 189.68309634 -245 171 C-267.44 171 -289.88 171 -313 171 Z M-226 171 C-226 178.29291308 -225.76519514 184.90801299 -224.875 192.0625 C-224.74810791 193.08529053 -224.62121582 194.10808105 -224.49047852 195.16186523 C-222.58303702 209.3528418 -219.02420299 223.2714989 -215 237 C-213.68515625 236.65388672 -213.68515625 236.65388672 -212.34375 236.30078125 C-191.05443813 230.82700493 -169.87136641 226.49848483 -147.890625 225.24609375 C-144.78436973 225.05897662 -144.78436973 225.05897662 -141 224 C-141 206.51 -141 189.02 -141 171 C-169.05 171 -197.1 171 -226 171 Z M-123 171 C-123 188.49 -123 205.98 -123 224 C-120.01376559 224.7465586 -117.61801616 225.18249785 -114.60546875 225.39453125 C-93.49329859 227.01444138 -73.35866717 230.80408441 -52.97338867 236.51269531 C-51.01516493 237.07991226 -51.01516493 237.07991226 -49 237 C-42.5776683 215.40346175 -38 193.60466402 -38 171 C-66.05 171 -94.1 171 -123 171 Z M-19 171 C-19.99 180.57 -20.98 190.14 -22 200 C-26.44687415 225.42699832 -26.44687415 225.42699832 -30.30078125 237.4609375 C-31.1770008 240.2038103 -31.1770008 240.2038103 -31 244 C-30.44352783 244.24008789 -29.88705566 244.48017578 -29.3137207 244.72753906 C-17.37905387 249.91578192 -5.89504608 255.49362168 5.2956543 262.15136719 C6.118479 262.63895508 6.94130371 263.12654297 7.7890625 263.62890625 C8.50787598 264.06275635 9.22668945 264.49660645 9.96728516 264.94360352 C11.97955008 265.98937223 13.78491562 266.55131619 16 267 C36.34191087 239.79024141 49 205.05822802 49 171 C26.56 171 4.12 171 -19 171 Z M-123 243 C-123 276 -123 309 -123 343 C-116.85245641 342.07039478 -116.85245641 342.07039478 -112.79296875 338.3515625 C-112.0462793 337.5994751 -111.29958984 336.8473877 -110.53027344 336.07250977 C-109.7571582 335.26483154 -108.98404297 334.45715332 -108.1875 333.625 C-107.3821582 332.79863037 -106.57681641 331.97226074 -105.74707031 331.12084961 C-100.13883007 325.31524027 -94.85813462 319.45221004 -90 313 C-88.93752448 311.6393038 -87.87502208 310.27862859 -86.8125 308.91796875 C-74.0729266 292.36201835 -63.74604325 274.40735926 -56 255 C-65.33544611 251.68605765 -74.72635008 249.25018453 -84.4375 247.3125 C-85.88745361 247.00953003 -85.88745361 247.00953003 -87.36669922 246.70043945 C-99.25365655 244.42467665 -110.73887298 243.98089016 -123 243 Z M-208 255 C-195.07748752 286.12805212 -176.37388519 312.317366 -153 336.4375 C-152.37681885 337.09524414 -151.7536377 337.75298828 -151.11157227 338.43066406 C-150.51787842 339.02975586 -149.92418457 339.62884766 -149.3125 340.24609375 C-148.53326172 341.04551392 -148.53326172 341.04551392 -147.73828125 341.86108398 C-145.64931689 343.45670036 -145.64931689 343.45670036 -141 343 C-141 310 -141 277 -141 243 C-163.51528361 243 -186.82643607 247.48370465 -208 255 Z M-235.0625 264.875 C-235.75770752 265.18163574 -236.45291504 265.48827148 -237.16918945 265.80419922 C-242.80133596 268.34782998 -248.26763417 271.15797303 -253.6875 274.125 C-254.4410376 274.53218262 -255.1945752 274.93936523 -255.97094727 275.35888672 C-260.32475382 277.79419143 -263.65505689 280.29219324 -267 284 C-245.04636038 306.58188368 -220.61675385 323.19779866 -191 334 C-190.17741699 334.30583008 -189.35483398 334.61166016 -188.50732422 334.92675781 C-187.70955566 335.21131836 -186.91178711 335.49587891 -186.08984375 335.7890625 C-185.37562256 336.0463916 -184.66140137 336.3037207 -183.92553711 336.56884766 C-181.79768204 337.21915846 -181.79768204 337.21915846 -179 336 C-179.98226562 334.88818359 -179.98226562 334.88818359 -180.984375 333.75390625 C-198.95676331 313.12930787 -216.03178483 288.03459478 -225 262 C-228.8077592 262 -231.64351636 263.36379685 -235.0625 264.875 Z M-39 262 C-39.67482422 263.60101563 -39.67482422 263.60101563 -40.36328125 265.234375 C-51.62366709 291.50363451 -66.70476318 314.16374961 -85 336 C-81.67456876 337.10847708 -81.06653952 336.93786779 -77.89453125 335.84765625 C-77.08387207 335.56994385 -76.27321289 335.29223145 -75.43798828 335.00610352 C-74.57157715 334.69471436 -73.70516602 334.3833252 -72.8125 334.0625 C-71.47034424 333.58478149 -71.47034424 333.58478149 -70.10107422 333.09741211 C-61.70886986 330.02962337 -53.83847421 326.26729337 -46 322 C-45.38930664 321.67386719 -44.77861328 321.34773438 -44.14941406 321.01171875 C-26.45806685 311.52847657 -10.83351139 298.49225002 3 284 C-0.95496218 279.61599853 -5.13831887 276.92092766 -10.3125 274.125 C-11.09633057 273.69590332 -11.88016113 273.26680664 -12.68774414 272.82470703 C-18.00950002 269.95713041 -23.40676085 267.31444758 -28.9375 264.875 C-29.60499268 264.57996582 -30.27248535 264.28493164 -30.96020508 263.98095703 C-33.81520337 262.7639023 -35.86255958 262 -39 262 Z " fill="#000000" transform="translate(342,48)"/>
</svg>
