<?xml version="1.0" encoding="UTF-8"?>
<svg id="Layer_1" xmlns="http://www.w3.org/2000/svg" version="1.1" viewBox="0 0 420 420">
  <!-- Generator: Adobe Illustrator 29.3.1, SVG Export Plug-In . SVG Version: 2.1.0 Build 151)  -->
  <path d="M336.7,54.5c3,2.6,6,5.4,8.9,8.1,1.9,1.7,3.7,3.3,5.7,4.9,3.6,3,6.4,6.4,9.5,10,.7.8,1.4,1.6,2.2,2.4,27.7,32.1,46.6,75.6,47,118.4,0,.8,0,1.6,0,2.4.5,54.4-14.9,102.5-51.1,143.7-.7.8-1.4,1.6-2.1,2.5-4.1,4.8-8.5,8.9-13.3,12.9-.9.8-1.7,1.6-2.7,2.4-19.2,16.9-42.2,29.9-66.5,38-.8.3-1.5.5-2.3.8-50,16.4-105.6,11.4-152.7-11.5-16-8.1-30.3-18.7-43.7-30.5q-1.2-1-2.5-2.1c-4.8-4.1-8.9-8.5-12.9-13.3-.8-.9-1.6-1.7-2.4-2.7-7.5-8.5-13.7-17.6-19.7-27.1q-.6-.9-1.2-1.9c-10.9-17.4-18.3-37.6-22.8-57.6-.2-.9-.4-1.8-.6-2.7-11.1-51.6-.2-106.8,28.2-151,6.2-9.4,13.2-18.1,21-26.3q2.3-2.4,4.3-5c1.7-2.1,3.3-3.7,5.4-5.5,2-1.7,4-3.4,6-5.3,10.9-10.2,23.6-18.2,36.7-25.2,1.7-.9,3.3-1.8,5-2.7,15.8-8.4,33.1-13.8,50.6-17.4q1.1-.2,2.2-.5c56.2-11.8,120.2,4.8,163.9,41.8ZM182.9,43.9c-5.4,5.4-10.3,11.1-14.9,17.1-.4.5-.9,1.1-1.3,1.7-12.6,15.7-24.8,34.2-31.7,53.3q.8,2.2,2.8,2.7c2.7.7,5.4,1.5,8.1,2.2q1.5.4,3.1.8c7.7,1.9,15.5,3.4,23.4,4.6,1,.2,2,.3,3.1.5,8.5,1.2,16.8,1.7,25.5,2.2V29c-5.9,0-13.8,10.7-18.1,14.9ZM219,29v100q19.6-1.4,38.7-4.4c1.1-.2,2.1-.4,3.3-.7q11.7-2.3,23.1-6l1-2c-1.1-2.9-2.3-5.6-3.7-8.4-.4-.8-.8-1.7-1.2-2.6-8-16.3-17.7-31.1-29.1-45.1q-.7-.9-1.5-1.8c-5.8-7.1-12-13.8-18.4-20.4-.6-.6-1.3-1.3-1.9-2q-.9-.9-1.8-1.8c-.5-.5-1.1-1.1-1.6-1.6q-2.1-1.8-6.8-3.4ZM254,34c3,4.2,6.1,8.2,9.6,11.9,16.7,18.6,29.5,42.2,39.4,65.1,10.6-4.1,20.7-8.7,30.6-14.3.9-.5,1.8-1,2.8-1.6q5-2.8,8.7-7.1c-24.8-25.5-54.2-45.2-89-54h-2ZM156.1,36.3q-1.6.5-3.2,1.1c-1.1.4-2.2.7-3.3,1.1-9,3.1-17.3,6.9-25.6,11.5-1.2.7-2.4,1.3-3.7,2-17,9.2-32,22.1-45.3,36,3.9,4.3,8,7,13.1,9.8.8.4,1.5.9,2.3,1.3,8.6,4.6,17.5,8.3,26.5,11.9q.5-1,.9-2c12.8-27.5,27.9-51.3,48.1-74-3.4-1.7-6.5.2-9.9,1.3ZM62,105c-22,23.7-33,64.6-33,96h68c1-9.2,2-18.5,3-28,.9-5.2,1.8-10.3,2.9-15.4q.4-1.7.7-3.5c1.5-7,3.4-13.7,5.7-20.4q.9-2.7-.3-5.7-1.7-1.1-3.8-1.9c-.8-.3-1.6-.7-2.4-1-.9-.4-1.7-.7-2.7-1.1-7.2-3.1-14.1-6.4-20.9-10.2-.7-.4-1.5-.8-2.2-1.2-3.2-1.8-6.2-3.7-9.2-5.7q-2.6-2-5.7-1.7ZM348.3,109c-7.2,4.5-14.7,8.3-22.3,12-3.3,1.6-6.7,3.3-10,5l-6,3c.2.6.4,1.3.6,2,5.3,19.2,9.2,38.4,11.2,58.1.4,4,.9,7.9,1.3,11.9h68c0-7.5-.3-13.7-1.6-20.9-.2-1-.4-2-.5-3-4.6-24.3-13.6-53.6-30.8-72.1-4,0-6.4,1.9-9.7,4ZM128,135c-7.3,21.2-12,43.5-12,66h85v-53c-3.4-.9-6.4-1.3-9.9-1.6-21.5-2-42.4-5.4-63.1-11.4ZM291,135q-2.1.2-4.4,1t-2.8.8c-1,.3-2,.6-3,.9-18.4,5-36.7,7.8-55.7,9.1q-2.4.2-6.1,1.2v53h85q-.8-15-2.7-29.8c-.2-1-.3-2-.5-3q-2.3-17.8-9.8-33.2ZM29,219c0,7.5.3,13.7,1.6,20.9.2,1,.4,2,.5,3,4.7,25,14.1,52.4,30.8,72.1,2.9-.6,5.2-1.5,7.8-3,.7-.4,1.4-.8,2.2-1.2.8-.4,1.5-.9,2.3-1.3,11.3-6.4,22.8-12.3,34.8-17.4-.7-6.4-2.3-12.5-3.9-18.8-4.4-18.1-6.4-35.6-8.1-54.2H29ZM116,219c0,7.3.2,13.9,1.1,21.1.1,1,.3,2,.4,3.1,1.9,14.2,5.5,28.1,9.5,41.8q1.3-.3,2.7-.7c21.3-5.5,42.5-9.8,64.5-11.1q3.1-.2,6.9-1.2v-53h-85ZM219,219v53c3,.7,5.4,1.2,8.4,1.4,21.1,1.6,41.2,5.4,61.6,11.1q2,.6,4,.5c6.4-21.6,11-43.4,11-66h-85ZM323,219c-1,9.6-2,19.1-3,29q-4.4,25.4-8.3,37.5-.9,2.7-.7,6.5c.6.2,1.1.5,1.7.7,11.9,5.2,23.4,10.8,34.6,17.4.8.5,1.6,1,2.5,1.5.7.4,1.4.9,2.2,1.3,2,1,3.8,1.6,6,2.1,20.3-27.2,33-61.9,33-96h-68ZM219,291v100q6.1-.9,10.2-4.6c.7-.8,1.5-1.5,2.3-2.3.8-.8,1.5-1.6,2.3-2.4.8-.8,1.6-1.7,2.4-2.5,5.6-5.8,10.9-11.7,15.7-18.1,1.1-1.4,2.1-2.7,3.2-4.1,12.7-16.6,23.1-34.5,30.8-53.9-9.3-3.3-18.7-5.7-28.4-7.7q-1.4-.3-2.9-.6c-11.9-2.3-23.4-2.7-35.6-3.7ZM134,303c12.9,31.1,31.6,57.3,55,81.4.6.7,1.2,1.3,1.9,2,.6.6,1.2,1.2,1.8,1.8q.8.8,1.6,1.6,2.1,1.6,6.7,1.1v-100c-22.5,0-45.8,4.5-67,12ZM106.9,312.9c-.7.3-1.4.6-2.1.9-5.6,2.5-11.1,5.4-16.5,8.3-.8.4-1.5.8-2.3,1.2-4.4,2.4-7.7,4.9-11,8.6,22,22.6,46.4,39.2,76,50,.8.3,1.6.6,2.5.9.8.3,1.6.6,2.4.9.7.3,1.4.5,2.2.8q2.1.7,4.9-.6-1-1.1-2-2.2c-18-20.6-35-45.7-44-71.8-3.8,0-6.6,1.4-10.1,2.9ZM303,310q-.7,1.6-1.4,3.2c-11.3,26.3-26.3,48.9-44.6,70.8,3.3,1.1,3.9.9,7.1-.2.8-.3,1.6-.6,2.5-.8.9-.3,1.7-.6,2.6-.9q1.3-.5,2.7-1c8.4-3.1,16.3-6.8,24.1-11.1.6-.3,1.2-.7,1.9-1,17.7-9.5,33.3-22.5,47.1-37-4-4.4-8.1-7.1-13.3-9.9-.8-.4-1.6-.9-2.4-1.3-5.3-2.9-10.7-5.5-16.2-7.9-.7-.3-1.3-.6-2-.9-2.9-1.2-4.9-2-8-2Z"/>
</svg>