<svg xmlns="http://www.w3.org/2000/svg" viewBox="0 0 31 30"><path fill="#22212b" fill-rule="evenodd" d="M21.565 10.939c-.385-.684-.802-.81-1.65-.858-.85-.057-2.982-.081-4.83-.081-1.851 0-3.985.024-4.833.08-.847.05-1.265.174-1.653.859C8.204 11.62 8 12.797 8 14.867v.007c0 2.061.204 3.246.6 3.922.387.683.804.807 1.652.865.848.05 2.982.079 4.833.079 1.848 0 3.98-.03 4.83-.078.85-.058 1.266-.182 1.65-.865.4-.676.602-1.86.602-3.922v-.007c0-2.071-.202-3.247-.602-3.93m-8.253 6.587v-5.312l4.428 2.656z"/></svg>